<svg width="52" height="58" viewBox="0 0 52 58" fill="none" xmlns="http://www.w3.org/2000/svg">
<path d="M37.3205 1.67137C37.3116 1.66691 37.3026 1.66246 37.2893 1.66246C29.37 -0.630775 20.4113 0.408755 13.5673 5.01306C9.23511 7.92199 6.01834 12.2764 4.37203 17.0057C6.08526 17.55 7.32557 19.1561 7.32557 21.0523C7.32557 23.3634 5.47403 25.2506 3.17188 25.3041C3.52434 30.8989 6.35295 36.1725 12.3849 39.4383C17.3417 42.1197 23.5522 42.3383 28.6874 40.0094C25.3814 39.8086 22.013 38.8092 19.5814 36.5561C17.4934 34.6198 16.2576 31.9072 15.566 29.1411C13.9063 22.5157 15.2359 15.1229 19.394 9.69768C23.5522 4.26352 30.5166 1.02445 37.3205 1.67137Z" fill="white"/>
<path d="M5.84898 21.0485C5.84898 19.8171 5.04591 18.7731 3.93052 18.4117C3.66283 18.3225 3.37283 18.2734 3.07391 18.2734C1.5436 18.2734 0.298828 19.5182 0.298828 21.044C0.298828 22.5699 1.5436 23.8147 3.07391 23.8147C3.09621 23.8147 3.11406 23.8147 3.13637 23.8102C4.63991 23.7879 5.84898 22.5521 5.84898 21.0485Z" fill="white"/>
<path d="M48.3636 9.14866C47.4668 8.32328 46.4898 7.59605 45.4502 6.98928C44.7453 8.35897 43.3176 9.29589 41.6713 9.29589C39.329 9.29589 37.4195 7.39081 37.4195 5.04404C37.4195 4.86558 37.4284 4.69159 37.4507 4.51759C32.9802 4.16512 28.8444 5.24927 25.1681 7.95296C21.3713 10.7459 18.5427 14.7702 18.0876 19.5485C18.0831 19.602 18.0787 19.6511 18.0742 19.7047C18.0742 19.7047 28.8845 7.8325 38.633 19.7047C38.633 19.7047 50.9335 12.7759 51.2101 12.6197C51.4153 12.5082 48.5421 9.31374 48.3636 9.14866Z" fill="white"/>
<path d="M41.6721 7.81913C42.7518 7.81913 43.6932 7.19451 44.1438 6.28882C44.3356 5.91405 44.4427 5.4902 44.4427 5.04405C44.4427 3.51374 43.198 2.27344 41.6721 2.27344C40.2667 2.27344 39.0933 3.33082 38.9193 4.68713C38.9015 4.80313 38.8926 4.92359 38.8926 5.04405C38.897 6.57436 40.1463 7.81913 41.6721 7.81913Z" fill="white"/>
<path d="M39.016 34.7745C36.6424 38.7453 32.8367 41.8371 28.4689 43.3585C18.6936 46.7671 5.96487 41.7613 1.93164 32.0039C3.22103 39.0487 7.41933 45.5135 13.3264 49.5601C16.0792 51.4473 19.1978 52.7991 22.4503 53.5621C22.8607 51.6436 24.5695 50.1891 26.6129 50.1891C28.8838 50.1891 30.7487 51.9827 30.8647 54.2268C31.8596 54.1554 32.8501 54.0216 33.8316 53.8342C40.8675 52.4868 47.301 48.235 51.2986 42.2922C47.2029 39.7893 43.1072 37.2819 39.016 34.7745Z" fill="white"/>
<path d="M26.6124 51.6719C25.2829 51.6719 24.163 52.6133 23.8998 53.8669C23.8641 54.0499 23.8418 54.2417 23.8418 54.4425C23.8418 55.9728 25.0866 57.2176 26.6124 57.2176C28.1427 57.2176 29.3875 55.9728 29.3875 54.4425C29.3875 54.3934 29.3875 54.3488 29.3786 54.3042C29.3116 52.8452 28.0936 51.6719 26.6124 51.6719Z" fill="white"/>
</svg>
