<svg width="27" height="30" viewBox="0 0 27 30" fill="none" xmlns="http://www.w3.org/2000/svg">
<path d="M19.3042 0.865851C19.2996 0.863543 19.295 0.861238 19.288 0.861238C15.1919 -0.324916 10.558 0.212772 7.01804 2.59431C4.77727 4.09893 3.11342 6.35123 2.26188 8.79739C3.14804 9.07893 3.78957 9.9097 3.78957 10.8905C3.78957 12.0859 2.83188 13.062 1.64111 13.0897C1.82342 15.9835 3.2865 18.7112 6.4065 20.4005C8.97034 21.7874 12.1826 21.9005 14.8388 20.6959C13.1288 20.592 11.3865 20.0751 10.1288 18.9097C9.04881 17.9082 8.40957 16.5051 8.05188 15.0743C7.19342 11.6474 7.88111 7.82354 10.0319 5.01739C12.1827 2.20662 15.785 0.531236 19.3042 0.865851Z" fill="#1DB954"/>
<path d="M3.02556 10.8885C3.02556 10.2516 2.61017 9.71159 2.03325 9.52466C1.89479 9.47851 1.74479 9.45312 1.59017 9.45312C0.798632 9.45312 0.154785 10.097 0.154785 10.8862C0.154785 11.6754 0.798632 12.3193 1.59017 12.3193C1.60171 12.3193 1.61094 12.3193 1.62248 12.317C2.40017 12.3054 3.02556 11.6662 3.02556 10.8885Z" fill="#1DB954"/>
<path d="M25.0156 4.73345C24.5517 4.30652 24.0463 3.93037 23.5086 3.61652C23.144 4.32499 22.4056 4.8096 21.554 4.8096C20.3425 4.8096 19.3548 3.82421 19.3548 2.61037C19.3548 2.51806 19.3594 2.42806 19.3709 2.33806C17.0586 2.15575 14.9194 2.71652 13.0179 4.11498C11.054 5.55959 9.59094 7.64114 9.35556 10.1127C9.35325 10.1404 9.35094 10.1657 9.34863 10.1934C9.34863 10.1934 14.9402 4.05267 19.9825 10.1934C19.9825 10.1934 26.3448 6.6096 26.4879 6.52883C26.594 6.47114 25.1079 4.81883 25.0156 4.73345Z" fill="#00874A"/>
<path d="M21.5539 4.04424C22.1124 4.04424 22.5993 3.72117 22.8324 3.2527C22.9316 3.05886 22.987 2.83963 22.987 2.60886C22.987 1.81732 22.3431 1.17578 21.5539 1.17578C20.827 1.17578 20.2201 1.72271 20.1301 2.42424C20.1208 2.48424 20.1162 2.54655 20.1162 2.60886C20.1185 3.40039 20.7647 4.04424 21.5539 4.04424Z" fill="#00874A"/>
<path d="M20.1811 17.9878C18.9534 20.0416 16.9849 21.6408 14.7257 22.4278C9.66951 24.1908 3.08567 21.6016 0.999512 16.5547C1.66643 20.1985 3.83797 23.5424 6.89336 25.6355C8.3172 26.6116 9.93028 27.3108 11.6126 27.7055C11.8249 26.7132 12.7087 25.9608 13.7657 25.9608C14.9403 25.9608 15.9049 26.8885 15.9649 28.0493C16.4795 28.0124 16.9918 27.9431 17.4995 27.8462C21.1387 27.1493 24.4664 24.9501 26.5341 21.8762C24.4157 20.5816 22.2972 19.2847 20.1811 17.9878Z" fill="#00874A"/>
<path d="M13.7656 26.7266C13.0779 26.7266 12.4987 27.2135 12.3625 27.8619C12.3441 27.9566 12.3325 28.0558 12.3325 28.1596C12.3325 28.9512 12.9764 29.595 13.7656 29.595C14.5571 29.595 15.201 28.9512 15.201 28.1596C15.201 28.1343 15.201 28.1112 15.1964 28.0881C15.1618 27.3335 14.5317 26.7266 13.7656 26.7266Z" fill="#00874A"/>
</svg>
